# xmcd
#
# Track frame offsets:
#	180
#	15390
#	29623
#	49482
#	67429
#	80785
#	100527
#	113008
#	127766
#	144122
#	161076
#	177134
#	192058
#	207504
#	223932
#
# Disc length: 3215 seconds
#
# Revision: 1
# Processed by: cddbd v1.5.1PL0 Copyright (c) Steve Scherf et al.
# Submitted via: audiograbber 1.82.02
#
DISCID=d60c8d0f
DTITLE=Various Artist - Sound Choice 8129 Country Hits Vol 10
DYEAR=1900
DGENRE=Karaoke
TTITLE0=Alan Jackson - Summertime Blues
TTITLE1=Dwight Yoakam - Pocket of a clown
TTITLE2=Martraca Berg - I won't let go
TTITLE3=Faith Hill - Piece of my heart
TTITLE4=Linda Davis - Love didn't do it
TTITLE5=Faith Hill - Piece of my heart
TTITLE6=Tracy Lawrence - Renegades, Rebels and Rogues
TTITLE7=David Ball - Thinkin' Problem
TTITLE8=Radney Foster - Labor of love
TTITLE9=Doug Supernaw - State Fair
TTITLE10=Doug Stone - More love
TTITLE11=Randy Travis - Whisper my name
TTITLE12=Wynonna Judd - Girls with guitars
TTITLE13=Clay Walker - Dreaming with my eyes open
TTITLE14=Lee Roy Parnell - Take these chains from my heart
EXTD=
EXTT0=
EXTT1=
EXTT2=
EXTT3=
EXTT4=
EXTT5=
EXTT6=
EXTT7=
EXTT8=
EXTT9=
EXTT10=
EXTT11=
EXTT12=
EXTT13=
EXTT14=
PLAYORDER=
